<svg width="26" height="29" viewBox="0 0 26 29" fill="none" xmlns="http://www.w3.org/2000/svg">
<path fill-rule="evenodd" clip-rule="evenodd" d="M19.1832 24.6797C18.8242 23.3984 17.7537 21.8935 16.9198 20.2682C17.6345 21.6613 18.3493 23.0544 19.1832 24.6797ZM21.1971 24.5332C20.0074 22.7962 19.2911 20.8183 18.5747 18.8403C17.9807 18.2642 17.5074 18.5051 17.0341 18.7459C16.2066 19.4599 15.3776 19.589 16.3274 20.2769C17.517 22.0139 18.3509 23.6392 18.9482 25.385C19.1848 25.2645 19.6581 25.0237 19.8948 24.9032C20.3681 24.6624 20.4856 24.3097 21.1971 24.5332ZM16.0859 18.6429C15.7269 17.3615 14.6563 15.8566 13.8224 14.2313C14.5372 15.6244 15.252 17.0176 16.0859 18.6429ZM12.8694 12.3738C12.6295 11.3246 11.4399 9.58759 10.7251 8.19447C11.4399 9.58759 12.0355 10.7485 12.9885 12.606C12.9885 12.606 12.9885 12.606 12.8694 12.3738ZM14.8833 12.2273C13.8128 10.7225 13.0964 8.74455 12.2609 6.53443C11.786 6.19049 11.3127 6.43136 10.8394 6.67223C10.0119 7.38615 9.18288 7.51527 10.1327 8.20315C11.2032 9.70802 12.1563 11.5655 12.7535 13.3113C12.9902 13.1908 13.4634 12.95 13.7001 12.8295C14.0543 12.3565 14.2909 12.236 14.8833 12.2273ZM9.77208 6.33697C9.53221 5.28779 8.34254 3.55073 7.62777 2.15761C8.34254 3.55073 8.93818 4.71167 9.89121 6.56916L9.77208 6.33697ZM11.786 6.19049C10.7154 4.68562 9.99906 2.70769 9.16355 0.497577C8.68865 0.153637 8.21536 0.394506 7.74206 0.635375C6.91461 1.3493 5.96641 1.24623 7.03535 2.16629C8.10589 3.67117 9.05892 5.52866 9.65617 7.2744C9.89282 7.15397 10.3661 6.9131 10.4836 6.56048C10.9569 6.31961 11.1936 6.19917 11.786 6.19049ZM11.3304 12.8642C10.3822 12.7612 9.67067 12.5377 8.72247 12.4346C9.67067 12.5377 10.2631 12.529 11.3304 12.8642C9.90731 12.4172 8.83999 12.082 7.53602 11.8672C8.60335 12.2024 9.55154 12.3055 10.9746 12.7525C9.43241 12.0733 8.12844 11.8585 6.94199 11.291C8.00931 11.6263 9.07664 11.9615 10.6189 12.6407C9.31328 11.8411 7.89019 11.3941 6.46709 10.9471C7.89019 11.3941 9.43241 12.0733 11.3304 12.8642C11.6862 12.976 11.6862 12.976 11.3304 12.8642ZM10.8571 13.1051C10.8571 13.1051 10.6205 13.2256 10.5013 12.9934C8.72408 13.0194 7.18347 12.925 5.76198 13.0628C7.06595 13.2776 8.48744 13.1398 9.90892 13.002C8.48744 13.1398 7.3026 13.1572 6.23689 13.4068C7.42173 13.3894 8.84321 13.2516 10.2647 13.1138C9.07986 13.1312 8.01415 13.3807 6.94843 13.6303C8.36992 13.4925 9.43563 13.2429 10.6205 13.2256C9.79141 13.3547 8.96234 13.4838 8.13328 13.6129C8.96234 13.4838 9.79141 13.3547 10.6205 13.2256C10.8571 13.1051 10.8571 13.1051 10.8571 13.1051ZM11.5719 14.4982C11.0986 14.7391 10.7444 15.2122 10.0345 15.5735C10.5078 15.3326 10.862 14.8595 11.5719 14.4982C10.862 14.8595 10.0345 15.5735 9.32456 15.9348C10.0345 15.5735 10.6253 14.98 11.3352 14.6187C10.3887 15.1004 9.44208 15.5821 8.61462 16.2961C9.20543 15.7026 10.152 15.2208 11.0986 14.7391C10.152 15.2208 9.20543 15.7026 8.25885 16.1843C9.20543 15.7026 10.2695 14.8682 11.4528 14.266C11.6894 14.1456 11.8085 14.3778 11.5719 14.4982ZM11.691 14.7304C11.4544 14.8509 11.4544 14.8509 11.4544 14.8509C10.5094 15.9174 9.80107 16.8635 9.32939 17.6892C9.80107 16.8635 10.5094 15.9174 11.1002 15.3239C10.6285 16.1496 10.0377 16.7431 9.56604 17.5688C10.0377 16.7431 10.746 15.797 11.2177 14.9713C10.746 15.797 10.511 16.5022 10.1568 16.9753C10.511 16.5022 10.9827 15.6765 11.4544 14.8509C11.2193 15.5561 10.8652 16.0292 10.7477 16.3818C11.1018 15.9087 11.1002 15.3239 11.4544 14.8509L11.691 14.7304ZM12.2818 14.1369C12.5185 14.0165 12.5185 14.0165 12.7551 13.8961C12.8742 14.1283 12.8742 14.1283 13.23 14.24C14.4197 15.9771 15.2536 17.6024 15.8508 19.3481C16.0875 19.2277 16.5608 18.9868 16.7974 18.8664C17.1516 18.3933 17.3882 18.2729 17.9807 18.2642C16.9101 16.7593 16.1937 14.7814 15.3582 12.5713C14.8833 12.2273 14.41 12.4682 13.9367 12.7091C13.3459 13.3026 12.7535 13.3113 12.636 13.6639C12.5169 13.4317 12.1611 13.3199 12.042 13.0878C11.9228 12.8556 11.5671 12.7438 10.973 12.1677C9.4308 11.4885 6.94038 10.7062 5.63641 10.4914C5.9938 11.188 7.8918 11.9789 9.43402 12.6581C7.89341 12.5637 5.8795 12.7102 4.69627 13.3124C5.88272 13.8798 10.2663 13.6986 11.5687 13.3286C11.5687 13.3286 11.8053 13.2082 11.9244 13.4404C12.2802 13.5521 12.636 13.6639 12.7551 13.8961C12.5185 14.0165 12.2818 14.1369 11.9261 14.0252C11.9261 14.0252 11.6894 14.1456 11.2161 14.3865C9.91376 14.7565 8.37636 15.8317 7.54891 16.5456C8.26046 16.7691 9.68033 16.0465 10.7444 15.2122C10.0361 16.1583 9.21026 17.457 8.73858 18.2827C9.80429 18.0331 11.6926 15.3152 11.8085 14.3778C12.0452 14.2574 12.0452 14.2574 12.2818 14.1369Z" fill="#468E0D"/>
<path d="M22.1264 8.01256L22.1294 8.00168L22.1292 7.99038L22.0545 3.26908L22.0544 3.26129L22.0527 3.25368C22.0149 3.08051 22.0982 2.91328 22.282 2.77772C22.4659 2.64209 22.74 2.54815 23.0458 2.53025C23.6496 2.49491 24.3538 2.75611 24.6969 3.53849C24.55 4.22129 24.4666 4.89457 24.3837 5.56396L24.3835 5.56562C24.2994 6.24458 24.2157 6.91957 24.0672 7.60331L24.06 7.63621L24.0791 7.66396C25.9973 10.4581 26.2079 13.5037 25.2627 16.257C24.3168 19.0123 22.2123 21.4765 19.4991 23.097C16.7864 24.7172 13.469 25.4917 10.0995 24.8734C6.7347 24.2559 3.31112 22.2482 0.381637 18.2928C0.273208 17.8389 0.22964 17.4602 0.253007 17.1585C0.276611 16.8537 0.367757 16.6347 0.521334 16.4922C0.674714 16.3499 0.90239 16.2727 1.22268 16.2766C1.54309 16.2805 1.94901 16.3658 2.44842 16.5405C10.6251 19.9359 19.6831 16.7656 22.1264 8.01256Z" fill="#FFEE2E" stroke="#468E0D" stroke-width="0.155869"/>
</svg>
