<svg width="38" height="31" viewBox="0 0 38 31" fill="none" xmlns="http://www.w3.org/2000/svg">
<path fill-rule="evenodd" clip-rule="evenodd" d="M9.78882 7.4787C9.71449 7.54435 9.64024 7.60994 9.56757 7.67719C9.39955 7.8293 9.23436 7.9838 9.07192 8.1402C7.67241 9.48792 6.42625 11.0294 5.53083 12.754C4.63423 14.4809 4.10146 16.3894 4.15122 18.2652C4.1737 19.1113 4.31782 20.0097 4.81403 20.764C4.8995 20.894 4.99538 21.0182 5.10115 21.135L6.87585 23.1272L6.89311 23.1466C7.09714 23.3756 7.34081 23.5746 7.62327 23.7285C8.04774 23.9597 8.55117 24.0805 9.08475 24.0356C9.54716 23.9968 9.98204 23.8386 10.368 23.6299C10.7521 23.4221 11.0859 23.1667 11.387 22.9092C11.9885 22.3948 12.4764 21.875 12.9945 21.5383C13.92 20.9369 15.1191 20.7639 16.3276 20.7353C17.5432 20.7065 18.8475 20.8024 20.2169 20.4803C21.8832 20.0884 23.4279 19.087 24.5248 17.7387C25.6203 16.392 26.2463 14.7372 26.3227 13.1102C26.403 11.4006 25.8769 9.74683 24.8462 8.48263C24.787 8.40996 24.7256 8.3392 24.6632 8.26945L22.8713 6.25797C21.8479 5.10531 20.4087 4.33617 18.8118 4.09941C17.0496 3.83818 15.1879 4.22585 13.5163 4.99449C12.1486 5.62341 10.9085 6.49523 9.78981 7.47891L9.78882 7.4787ZM10.5675 8.29811C10.6466 8.22825 10.7271 8.16014 10.8075 8.09196C11.7732 7.27586 12.8147 6.57058 13.9265 6.05934C15.4048 5.3796 17.028 5.05337 18.5067 5.27259C19.9182 5.48184 21.2061 6.20127 22.0689 7.25954C22.9317 8.31789 23.3804 9.72758 23.3132 11.1604C23.2492 12.5232 22.7161 13.9241 21.8105 15.0372C20.9063 16.1488 19.6116 16.9844 18.2559 17.3033C17.132 17.5677 15.9163 17.4942 14.6262 17.5247C13.3288 17.5555 11.8769 17.7187 10.6044 18.5456C9.89099 19.0092 9.36629 19.5847 8.84926 20.0269C8.59104 20.2476 8.33377 20.4396 8.07412 20.5801C7.81625 20.7195 7.55108 20.8089 7.30918 20.8292C7.03221 20.8525 6.73954 20.7876 6.48945 20.6513C6.23732 20.514 6.01687 20.3017 5.8485 20.0457C5.50988 19.531 5.37717 18.8385 5.35772 18.1054C5.31424 16.4674 5.78362 14.7588 6.59401 13.1981C7.40552 11.6351 8.55347 10.207 9.86721 8.94186C10.0959 8.72174 10.3293 8.50668 10.5675 8.29812L10.5675 8.29811ZM11.2794 9.1058C11.0575 9.29871 10.8402 9.50016 10.6259 9.7067C9.39395 10.8931 8.33967 12.213 7.60812 13.6219C6.87997 15.0243 6.47101 16.5423 6.50846 17.9535C6.52504 18.5788 6.64697 19.075 6.8353 19.3613C6.92671 19.5003 7.03812 19.5982 7.12799 19.6472C7.21187 19.6929 7.30353 19.7045 7.33577 19.7018C7.36779 19.6991 7.47117 19.6753 7.60666 19.602C7.74739 19.5259 7.93181 19.3946 8.14921 19.2086C8.58576 18.8354 9.14542 18.2068 10.045 17.6222C11.6483 16.5803 13.3414 16.4263 14.7236 16.3936C16.0848 16.3613 17.2159 16.4135 18.1058 16.2042C19.1653 15.955 20.2216 15.2772 20.9423 14.3914C21.6667 13.5009 22.1111 12.3421 22.1633 11.2312C22.2182 10.0623 21.8432 8.88538 21.1403 8.02328C20.4377 7.16151 19.3637 6.56187 18.216 6.39172C17.0075 6.21256 15.6117 6.48018 14.3177 7.07518C13.3383 7.52553 12.3954 8.15916 11.5017 8.91461C11.4271 8.97742 11.3531 9.04127 11.2794 9.10579L11.2794 9.1058ZM16.5539 10.6203C16.9793 10.2446 17.4871 9.99643 17.9658 9.93037C18.4444 9.86431 18.8545 9.98578 19.106 10.2681C19.3575 10.5504 19.4297 10.9704 19.3068 11.4357C19.1838 11.901 18.8758 12.3735 18.4504 12.7492C18.2397 12.9353 18.0066 13.092 17.7644 13.2104C17.5221 13.3288 17.2754 13.4065 17.0385 13.4393C16.8015 13.472 16.5788 13.459 16.3831 13.401C16.1875 13.3431 16.0226 13.2413 15.8981 13.1015C15.7736 12.9617 15.6918 12.7867 15.6574 12.5863C15.6229 12.386 15.6365 12.1643 15.6974 11.9339C15.7583 11.7035 15.8653 11.4689 16.0122 11.2435C16.1592 11.0181 16.3432 10.8064 16.5539 10.6203Z" fill="#EE8383"/>
<path d="M33.9155 10.3444C32.0187 12.0046 31.7905 15.2055 31.7905 15.2055C13.8494 11.5239 10.2464 25.0293 10.2464 25.0293C10.2464 25.0293 22.0902 32.5245 32.7716 17.7056C32.7716 17.7056 35.1186 19.9048 37.6435 19.8443C37.6435 19.8443 35.4471 18.1632 34.4464 15.613C33.446 13.0631 33.9155 10.3444 33.9155 10.3444ZM14.758 23.1122C14.3375 23.2758 13.8494 23.0331 13.6678 22.5703C13.4862 22.1074 13.6798 21.5998 14.1003 21.4362C14.5209 21.2726 15.0088 21.515 15.1904 21.9778C15.372 22.4407 15.1786 22.9486 14.758 23.1122ZM18.8105 25.1835C18.7899 25.2864 18.7228 25.362 18.6378 25.3951C18.5832 25.4163 18.5203 25.4197 18.4571 25.4001C18.2972 25.3516 18.1954 25.175 18.2301 25.0065C18.8568 21.9747 16.5839 20.5788 16.4874 20.5208C16.3399 20.433 16.2786 20.2386 16.3505 20.0866C16.4218 19.9344 16.5986 19.8814 16.7464 19.9684C16.7745 19.9852 19.5385 21.662 18.8105 25.1835Z" fill="#7A7871"/>
</svg>
