<svg width="20" height="20" viewBox="0 0 20 20" fill="none" xmlns="http://www.w3.org/2000/svg">
<path fill-rule="evenodd" clip-rule="evenodd" d="M15.7385 10.0002C15.7385 13.1721 13.1719 15.7387 9.99997 15.7387C6.82806 15.7387 4.26147 13.1721 4.26147 10.0002C4.26147 6.8283 6.82806 4.26172 9.99997 4.26172C13.1719 4.26172 15.7385 6.8283 15.7385 10.0002ZM9.99997 5.1576C12.6876 5.1576 14.8668 7.31257 14.8668 10.0002C14.8668 12.6879 12.6876 14.867 9.99997 14.867C7.31232 14.867 5.15736 12.6879 5.15736 10.0002C5.15736 7.31257 7.31232 5.1576 9.99997 5.1576Z" fill="#FE9013"/>
<path fill-rule="evenodd" clip-rule="evenodd" d="M9.99976 0C15.5203 0 19.9998 4.47942 19.9998 10C19.9998 15.5206 15.5203 20 9.99976 20C4.47917 20 -0.000244141 15.5206 -0.000244141 10C-0.000244141 4.47942 4.47917 0 9.99976 0ZM9.99976 0.895884C15.0361 0.895884 19.1281 4.96368 19.1281 10C19.1281 15.0363 15.0361 19.1283 9.99976 19.1283C4.96344 19.1283 0.89564 15.0363 0.89564 10C0.89564 4.96368 4.96344 0.895884 9.99976 0.895884Z" fill="#FE9013"/>
</svg>
